<svg width="109" height="12" viewBox="0 0 109 12" fill="none" xmlns="http://www.w3.org/2000/svg">
<path d="M3.948 0.599999C4.724 0.599999 5.368 0.859999 5.88 1.38C6.4 1.892 6.66 2.532 6.66 3.3C6.66 4.06 6.4 4.7 5.88 5.22C5.368 5.74 4.724 6 3.948 6H2.016V9H0.9V0.599999H3.948ZM3.948 4.956C4.412 4.956 4.796 4.8 5.1 4.488C5.404 4.168 5.556 3.772 5.556 3.3C5.556 2.82 5.404 2.424 5.1 2.112C4.796 1.8 4.412 1.644 3.948 1.644H2.016V4.956H3.948ZM12.5011 3H13.5451V9H12.5011V7.968C11.9811 8.76 11.2251 9.156 10.2331 9.156C9.39309 9.156 8.67709 8.852 8.08509 8.244C7.49309 7.628 7.19709 6.88 7.19709 6C7.19709 5.12 7.49309 4.376 8.08509 3.768C8.67709 3.152 9.39309 2.844 10.2331 2.844C11.2251 2.844 11.9811 3.24 12.5011 4.032V3ZM10.3651 8.148C10.9731 8.148 11.4811 7.944 11.8891 7.536C12.2971 7.12 12.5011 6.608 12.5011 6C12.5011 5.392 12.2971 4.884 11.8891 4.476C11.4811 4.06 10.9731 3.852 10.3651 3.852C9.76509 3.852 9.26109 4.06 8.85309 4.476C8.44509 4.884 8.24109 5.392 8.24109 6C8.24109 6.608 8.44509 7.12 8.85309 7.536C9.26109 7.944 9.76509 8.148 10.3651 8.148ZM19.4348 3H20.5508L18.1028 9.372C17.8468 10.052 17.4868 10.568 17.0228 10.92C16.5668 11.28 16.0388 11.44 15.4388 11.4V10.428C16.1748 10.484 16.7148 10.076 17.0588 9.204L17.1668 8.976L14.5508 3H15.6668L17.7068 7.704L19.4348 3ZM28.0226 2.844C28.6946 2.844 29.2386 3.064 29.6546 3.504C30.0706 3.936 30.2786 4.524 30.2786 5.268V9H29.2346V5.304C29.2346 4.84 29.1146 4.48 28.8746 4.224C28.6346 3.968 28.3146 3.84 27.9146 3.84C27.4666 3.84 27.1066 3.992 26.8346 4.296C26.5706 4.592 26.4386 5.048 26.4386 5.664V9H25.3946V5.304C25.3946 4.84 25.2786 4.48 25.0466 4.224C24.8226 3.968 24.5146 3.84 24.1226 3.84C23.6826 3.84 23.3146 3.992 23.0186 4.296C22.7306 4.6 22.5866 5.056 22.5866 5.664V9H21.5426V3H22.5866V3.804C22.9946 3.164 23.5906 2.844 24.3746 2.844C25.1826 2.844 25.7706 3.184 26.1386 3.864C26.5546 3.184 27.1826 2.844 28.0226 2.844ZM32.5782 6.48C32.6822 7.016 32.9262 7.432 33.3102 7.728C33.7022 8.024 34.1822 8.172 34.7502 8.172C35.5422 8.172 36.1182 7.88 36.4782 7.296L37.3662 7.8C36.7822 8.704 35.9022 9.156 34.7262 9.156C33.7742 9.156 32.9982 8.86 32.3982 8.268C31.8062 7.668 31.5102 6.912 31.5102 6C31.5102 5.096 31.8022 4.344 32.3862 3.744C32.9702 3.144 33.7262 2.844 34.6542 2.844C35.5342 2.844 36.2502 3.156 36.8022 3.78C37.3622 4.396 37.6422 5.14 37.6422 6.012C37.6422 6.164 37.6302 6.32 37.6062 6.48H32.5782ZM34.6542 3.828C34.0942 3.828 33.6302 3.988 33.2622 4.308C32.8942 4.62 32.6662 5.04 32.5782 5.568H36.5862C36.4982 5 36.2742 4.568 35.9142 4.272C35.5542 3.976 35.1342 3.828 34.6542 3.828ZM41.9503 2.844C42.6543 2.844 43.2183 3.068 43.6423 3.516C44.0663 3.956 44.2783 4.556 44.2783 5.316V9H43.2343V5.376C43.2343 4.888 43.1023 4.512 42.8383 4.248C42.5743 3.976 42.2103 3.84 41.7463 3.84C41.2263 3.84 40.8063 4.004 40.4863 4.332C40.1663 4.652 40.0063 5.148 40.0063 5.82V9H38.9623V3H40.0063V3.864C40.4303 3.184 41.0783 2.844 41.9503 2.844ZM49.1198 4.008H47.5238V7.26C47.5238 7.556 47.5798 7.768 47.6918 7.896C47.8118 8.016 47.9918 8.08 48.2318 8.088C48.4718 8.088 48.7678 8.08 49.1198 8.064V9C48.2078 9.12 47.5398 9.048 47.1158 8.784C46.6918 8.512 46.4798 8.004 46.4798 7.26V4.008H45.2918V3H46.4798V1.632L47.5238 1.32V3H49.1198V4.008ZM54.5309 4.62C54.5309 4.852 54.6469 5.04 54.8789 5.184C55.1109 5.32 55.3909 5.432 55.7189 5.52C56.0469 5.6 56.3749 5.696 56.7029 5.808C57.0309 5.912 57.3109 6.096 57.5429 6.36C57.7749 6.616 57.8909 6.948 57.8909 7.356C57.8909 7.9 57.6789 8.336 57.2549 8.664C56.8389 8.992 56.3029 9.156 55.6469 9.156C55.0629 9.156 54.5629 9.028 54.1469 8.772C53.7309 8.516 53.4349 8.176 53.2589 7.752L54.1589 7.236C54.2549 7.524 54.4349 7.752 54.6989 7.92C54.9629 8.088 55.2789 8.172 55.6469 8.172C55.9909 8.172 56.2749 8.108 56.4989 7.98C56.7229 7.844 56.8349 7.636 56.8349 7.356C56.8349 7.124 56.7189 6.94 56.4869 6.804C56.2549 6.66 55.9749 6.548 55.6469 6.468C55.3189 6.38 54.9909 6.28 54.6629 6.168C54.3349 6.056 54.0549 5.872 53.8229 5.616C53.5909 5.36 53.4749 5.032 53.4749 4.632C53.4749 4.112 53.6749 3.684 54.0749 3.348C54.4829 3.012 54.9909 2.844 55.5989 2.844C56.0869 2.844 56.5189 2.956 56.8949 3.18C57.2789 3.396 57.5669 3.7 57.7589 4.092L56.8829 4.584C56.6669 4.072 56.2389 3.816 55.5989 3.816C55.3029 3.816 55.0509 3.888 54.8429 4.032C54.6349 4.168 54.5309 4.364 54.5309 4.62ZM63.3284 3H64.3724V9H63.3284V8.136C62.9044 8.816 62.2564 9.156 61.3844 9.156C60.6804 9.156 60.1164 8.936 59.6924 8.496C59.2684 8.048 59.0564 7.444 59.0564 6.684V3H60.1004V6.624C60.1004 7.112 60.2324 7.492 60.4964 7.764C60.7604 8.028 61.1244 8.16 61.5884 8.16C62.1084 8.16 62.5284 8 62.8484 7.68C63.1684 7.352 63.3284 6.852 63.3284 6.18V3ZM68.9018 9.156C67.9978 9.156 67.2458 8.856 66.6458 8.256C66.0458 7.648 65.7458 6.896 65.7458 6C65.7458 5.104 66.0458 4.356 66.6458 3.756C67.2458 3.148 67.9978 2.844 68.9018 2.844C69.4938 2.844 70.0258 2.988 70.4978 3.276C70.9698 3.556 71.3218 3.936 71.5538 4.416L70.6778 4.92C70.5258 4.6 70.2898 4.344 69.9698 4.152C69.6578 3.96 69.3018 3.864 68.9018 3.864C68.3018 3.864 67.7978 4.068 67.3898 4.476C66.9898 4.884 66.7898 5.392 66.7898 6C66.7898 6.6 66.9898 7.104 67.3898 7.512C67.7978 7.92 68.3018 8.124 68.9018 8.124C69.3018 8.124 69.6618 8.032 69.9818 7.848C70.3018 7.656 70.5458 7.4 70.7138 7.08L71.6018 7.596C71.3458 8.068 70.9778 8.448 70.4978 8.736C70.0178 9.016 69.4858 9.156 68.9018 9.156ZM75.4906 9.156C74.5866 9.156 73.8346 8.856 73.2346 8.256C72.6346 7.648 72.3346 6.896 72.3346 6C72.3346 5.104 72.6346 4.356 73.2346 3.756C73.8346 3.148 74.5866 2.844 75.4906 2.844C76.0826 2.844 76.6146 2.988 77.0866 3.276C77.5586 3.556 77.9106 3.936 78.1426 4.416L77.2666 4.92C77.1146 4.6 76.8786 4.344 76.5586 4.152C76.2466 3.96 75.8906 3.864 75.4906 3.864C74.8906 3.864 74.3866 4.068 73.9786 4.476C73.5786 4.884 73.3786 5.392 73.3786 6C73.3786 6.6 73.5786 7.104 73.9786 7.512C74.3866 7.92 74.8906 8.124 75.4906 8.124C75.8906 8.124 76.2506 8.032 76.5706 7.848C76.8906 7.656 77.1346 7.4 77.3026 7.08L78.1906 7.596C77.9346 8.068 77.5666 8.448 77.0866 8.736C76.6066 9.016 76.0746 9.156 75.4906 9.156ZM79.9913 6.48C80.0953 7.016 80.3393 7.432 80.7233 7.728C81.1153 8.024 81.5953 8.172 82.1633 8.172C82.9553 8.172 83.5313 7.88 83.8913 7.296L84.7793 7.8C84.1953 8.704 83.3153 9.156 82.1393 9.156C81.1873 9.156 80.4113 8.86 79.8113 8.268C79.2193 7.668 78.9233 6.912 78.9233 6C78.9233 5.096 79.2153 4.344 79.7993 3.744C80.3833 3.144 81.1393 2.844 82.0673 2.844C82.9473 2.844 83.6633 3.156 84.2153 3.78C84.7753 4.396 85.0553 5.14 85.0553 6.012C85.0553 6.164 85.0433 6.32 85.0193 6.48H79.9913ZM82.0673 3.828C81.5073 3.828 81.0433 3.988 80.6753 4.308C80.3073 4.62 80.0793 5.04 79.9913 5.568H83.9993C83.9113 5 83.6873 4.568 83.3273 4.272C82.9673 3.976 82.5473 3.828 82.0673 3.828ZM87.0411 4.62C87.0411 4.852 87.1571 5.04 87.3891 5.184C87.6211 5.32 87.9011 5.432 88.2291 5.52C88.5571 5.6 88.8851 5.696 89.2131 5.808C89.5411 5.912 89.8211 6.096 90.0531 6.36C90.2851 6.616 90.4011 6.948 90.4011 7.356C90.4011 7.9 90.1891 8.336 89.7651 8.664C89.3491 8.992 88.8131 9.156 88.1571 9.156C87.5731 9.156 87.0731 9.028 86.6571 8.772C86.2411 8.516 85.9451 8.176 85.7691 7.752L86.6691 7.236C86.7651 7.524 86.9451 7.752 87.2091 7.92C87.4731 8.088 87.7891 8.172 88.1571 8.172C88.5011 8.172 88.7851 8.108 89.0091 7.98C89.2331 7.844 89.3451 7.636 89.3451 7.356C89.3451 7.124 89.2291 6.94 88.9971 6.804C88.7651 6.66 88.4851 6.548 88.1571 6.468C87.8291 6.38 87.5011 6.28 87.1731 6.168C86.8451 6.056 86.5651 5.872 86.3331 5.616C86.1011 5.36 85.9851 5.032 85.9851 4.632C85.9851 4.112 86.1851 3.684 86.5851 3.348C86.9931 3.012 87.5011 2.844 88.1091 2.844C88.5971 2.844 89.0291 2.956 89.4051 3.18C89.7891 3.396 90.0771 3.7 90.2691 4.092L89.3931 4.584C89.1771 4.072 88.7491 3.816 88.1091 3.816C87.8131 3.816 87.5611 3.888 87.3531 4.032C87.1451 4.168 87.0411 4.364 87.0411 4.62ZM92.2822 4.62C92.2822 4.852 92.3982 5.04 92.6302 5.184C92.8622 5.32 93.1422 5.432 93.4702 5.52C93.7982 5.6 94.1262 5.696 94.4542 5.808C94.7822 5.912 95.0622 6.096 95.2942 6.36C95.5262 6.616 95.6422 6.948 95.6422 7.356C95.6422 7.9 95.4302 8.336 95.0062 8.664C94.5902 8.992 94.0542 9.156 93.3982 9.156C92.8142 9.156 92.3142 9.028 91.8982 8.772C91.4822 8.516 91.1862 8.176 91.0102 7.752L91.9102 7.236C92.0062 7.524 92.1862 7.752 92.4502 7.92C92.7142 8.088 93.0302 8.172 93.3982 8.172C93.7422 8.172 94.0262 8.108 94.2502 7.98C94.4742 7.844 94.5862 7.636 94.5862 7.356C94.5862 7.124 94.4702 6.94 94.2382 6.804C94.0062 6.66 93.7262 6.548 93.3982 6.468C93.0702 6.38 92.7422 6.28 92.4142 6.168C92.0862 6.056 91.8062 5.872 91.5742 5.616C91.3422 5.36 91.2262 5.032 91.2262 4.632C91.2262 4.112 91.4262 3.684 91.8262 3.348C92.2342 3.012 92.7422 2.844 93.3502 2.844C93.8382 2.844 94.2702 2.956 94.6462 3.18C95.0302 3.396 95.3182 3.7 95.5102 4.092L94.6342 4.584C94.4182 4.072 93.9902 3.816 93.3502 3.816C93.0542 3.816 92.8022 3.888 92.5942 4.032C92.3862 4.168 92.2822 4.364 92.2822 4.62ZM99.9533 1.452C98.8973 1.364 98.3693 1.82 98.3693 2.82V3H99.9533V4.008H98.3693V9H97.3253V4.008H96.3653V3H97.3253V2.82C97.3253 2.012 97.5493 1.4 97.9973 0.983999C98.4533 0.568 99.1053 0.388 99.9533 0.443999V1.452ZM105.008 3H106.052V9H105.008V8.136C104.584 8.816 103.936 9.156 103.064 9.156C102.36 9.156 101.796 8.936 101.372 8.496C100.948 8.048 100.736 7.444 100.736 6.684V3H101.78V6.624C101.78 7.112 101.912 7.492 102.176 7.764C102.44 8.028 102.804 8.16 103.268 8.16C103.788 8.16 104.208 8 104.528 7.68C104.848 7.352 105.008 6.852 105.008 6.18V3ZM107.762 9V0.24H108.806V9H107.762Z" fill="black"/>
</svg>
