<svg width="168" height="14" viewBox="0 0 168 14" fill="none" xmlns="http://www.w3.org/2000/svg">
<path d="M5.7288 2.432H1.3888V5.61H5.5468V6.842H1.3888V11H0.0867966V1.2H5.7288V2.432ZM13.2275 10.118C12.5089 10.8273 11.6362 11.182 10.6095 11.182C9.58288 11.182 8.71021 10.8273 7.99155 10.118C7.28221 9.40867 6.92755 8.536 6.92755 7.5C6.92755 6.464 7.28221 5.59133 7.99155 4.882C8.71021 4.17267 9.58288 3.818 10.6095 3.818C11.6362 3.818 12.5089 4.17267 13.2275 4.882C13.9462 5.59133 14.3055 6.464 14.3055 7.5C14.3055 8.536 13.9462 9.40867 13.2275 10.118ZM10.6095 9.992C11.3095 9.992 11.8975 9.754 12.3735 9.278C12.8495 8.802 13.0875 8.20933 13.0875 7.5C13.0875 6.79067 12.8495 6.198 12.3735 5.722C11.8975 5.246 11.3095 5.008 10.6095 5.008C9.91888 5.008 9.33555 5.246 8.85955 5.722C8.38355 6.198 8.14555 6.79067 8.14555 7.5C8.14555 8.20933 8.38355 8.802 8.85955 9.278C9.33555 9.754 9.91888 9.992 10.6095 9.992ZM17.0994 5.176C17.5008 4.308 18.2288 3.874 19.2834 3.874V5.148C18.6861 5.12 18.1728 5.27867 17.7434 5.624C17.3141 5.96933 17.0994 6.52467 17.0994 7.29V11H15.8814V4H17.0994V5.176ZM26.0424 4H27.2464V10.706C27.2464 11.742 26.8964 12.5447 26.1964 13.114C25.4964 13.6927 24.6564 13.982 23.6764 13.982C22.8924 13.982 22.2157 13.8327 21.6464 13.534C21.077 13.2447 20.6477 12.8247 20.3584 12.274L21.4224 11.672C21.805 12.456 22.5657 12.848 23.7044 12.848C24.4324 12.848 25.0017 12.6567 25.4124 12.274C25.8324 11.8913 26.0424 11.3687 26.0424 10.706V9.712C25.4264 10.6453 24.549 11.112 23.4104 11.112C22.4117 11.112 21.567 10.7573 20.8764 10.048C20.1857 9.33867 19.8404 8.47533 19.8404 7.458C19.8404 6.44067 20.1857 5.582 20.8764 4.882C21.567 4.17267 22.4117 3.818 23.4104 3.818C24.5584 3.818 25.4357 4.28 26.0424 5.204V4ZM21.7724 9.236C22.2484 9.712 22.841 9.95 23.5504 9.95C24.2597 9.95 24.8524 9.712 25.3284 9.236C25.8044 8.76 26.0424 8.16733 26.0424 7.458C26.0424 6.758 25.8044 6.17 25.3284 5.694C24.8524 5.218 24.2597 4.98 23.5504 4.98C22.841 4.98 22.2484 5.218 21.7724 5.694C21.2964 6.17 21.0584 6.758 21.0584 7.458C21.0584 8.16733 21.2964 8.76 21.7724 9.236ZM35.1397 10.118C34.4211 10.8273 33.5484 11.182 32.5217 11.182C31.4951 11.182 30.6224 10.8273 29.9037 10.118C29.1944 9.40867 28.8397 8.536 28.8397 7.5C28.8397 6.464 29.1944 5.59133 29.9037 4.882C30.6224 4.17267 31.4951 3.818 32.5217 3.818C33.5484 3.818 34.4211 4.17267 35.1397 4.882C35.8584 5.59133 36.2177 6.464 36.2177 7.5C36.2177 8.536 35.8584 9.40867 35.1397 10.118ZM32.5217 9.992C33.2217 9.992 33.8097 9.754 34.2857 9.278C34.7617 8.802 34.9997 8.20933 34.9997 7.5C34.9997 6.79067 34.7617 6.198 34.2857 5.722C33.8097 5.246 33.2217 5.008 32.5217 5.008C31.8311 5.008 31.2477 5.246 30.7717 5.722C30.2957 6.198 30.0577 6.79067 30.0577 7.5C30.0577 8.20933 30.2957 8.802 30.7717 9.278C31.2477 9.754 31.8311 9.992 32.5217 9.992ZM41.4512 5.176H39.5892V8.97C39.5892 9.31533 39.6546 9.56267 39.7852 9.712C39.9252 9.852 40.1352 9.92667 40.4152 9.936C40.6952 9.936 41.0406 9.92667 41.4512 9.908V11C40.3872 11.14 39.6079 11.056 39.1132 10.748C38.6186 10.4307 38.3712 9.838 38.3712 8.97V5.176H36.9852V4H38.3712V2.404L39.5892 2.04V4H41.4512V5.176ZM50.3962 1.2C51.3016 1.2 52.0529 1.50333 52.6502 2.11C53.2569 2.70733 53.5602 3.454 53.5602 4.35C53.5602 5.23667 53.2569 5.98333 52.6502 6.59C52.0529 7.19667 51.3016 7.5 50.3962 7.5H48.1422V11H46.8402V1.2H50.3962ZM50.3962 6.282C50.9376 6.282 51.3856 6.1 51.7402 5.736C52.0949 5.36267 52.2722 4.90067 52.2722 4.35C52.2722 3.79 52.0949 3.328 51.7402 2.964C51.3856 2.6 50.9376 2.418 50.3962 2.418H48.1422V6.282H50.3962ZM60.3748 4H61.5928V11H60.3748V9.796C59.7682 10.72 58.8862 11.182 57.7288 11.182C56.7488 11.182 55.9135 10.8273 55.2228 10.118C54.5322 9.39933 54.1868 8.52667 54.1868 7.5C54.1868 6.47333 54.5322 5.60533 55.2228 4.896C55.9135 4.17733 56.7488 3.818 57.7288 3.818C58.8862 3.818 59.7682 4.28 60.3748 5.204V4ZM57.8828 10.006C58.5922 10.006 59.1848 9.768 59.6608 9.292C60.1368 8.80667 60.3748 8.20933 60.3748 7.5C60.3748 6.79067 60.1368 6.198 59.6608 5.722C59.1848 5.23667 58.5922 4.994 57.8828 4.994C57.1828 4.994 56.5948 5.23667 56.1188 5.722C55.6428 6.198 55.4048 6.79067 55.4048 7.5C55.4048 8.20933 55.6428 8.80667 56.1188 9.292C56.5948 9.768 57.1828 10.006 57.8828 10.006ZM64.6145 5.89C64.6145 6.16067 64.7499 6.38 65.0205 6.548C65.2912 6.70667 65.6179 6.83733 66.0005 6.94C66.3832 7.03333 66.7659 7.14533 67.1485 7.276C67.5312 7.39733 67.8579 7.612 68.1285 7.92C68.3992 8.21867 68.5345 8.606 68.5345 9.082C68.5345 9.71667 68.2872 10.2253 67.7925 10.608C67.3072 10.9907 66.6819 11.182 65.9165 11.182C65.2352 11.182 64.6519 11.0327 64.1665 10.734C63.6812 10.4353 63.3359 10.0387 63.1305 9.544L64.1805 8.942C64.2925 9.278 64.5025 9.544 64.8105 9.74C65.1185 9.936 65.4872 10.034 65.9165 10.034C66.3179 10.034 66.6492 9.95933 66.9105 9.81C67.1719 9.65133 67.3025 9.40867 67.3025 9.082C67.3025 8.81133 67.1672 8.59667 66.8965 8.438C66.6259 8.27 66.2992 8.13933 65.9165 8.046C65.5339 7.94333 65.1512 7.82667 64.7685 7.696C64.3859 7.56533 64.0592 7.35067 63.7885 7.052C63.5179 6.75333 63.3825 6.37067 63.3825 5.904C63.3825 5.29733 63.6159 4.798 64.0825 4.406C64.5585 4.014 65.1512 3.818 65.8605 3.818C66.4299 3.818 66.9339 3.94867 67.3725 4.21C67.8205 4.462 68.1565 4.81667 68.3805 5.274L67.3585 5.848C67.1065 5.25067 66.6072 4.952 65.8605 4.952C65.5152 4.952 65.2212 5.036 64.9785 5.204C64.7359 5.36267 64.6145 5.59133 64.6145 5.89ZM70.7292 5.89C70.7292 6.16067 70.8645 6.38 71.1352 6.548C71.4058 6.70667 71.7325 6.83733 72.1152 6.94C72.4978 7.03333 72.8805 7.14533 73.2632 7.276C73.6458 7.39733 73.9725 7.612 74.2432 7.92C74.5138 8.21867 74.6492 8.606 74.6492 9.082C74.6492 9.71667 74.4018 10.2253 73.9072 10.608C73.4218 10.9907 72.7965 11.182 72.0312 11.182C71.3498 11.182 70.7665 11.0327 70.2812 10.734C69.7958 10.4353 69.4505 10.0387 69.2452 9.544L70.2952 8.942C70.4072 9.278 70.6172 9.544 70.9252 9.74C71.2332 9.936 71.6018 10.034 72.0312 10.034C72.4325 10.034 72.7638 9.95933 73.0252 9.81C73.2865 9.65133 73.4172 9.40867 73.4172 9.082C73.4172 8.81133 73.2818 8.59667 73.0112 8.438C72.7405 8.27 72.4138 8.13933 72.0312 8.046C71.6485 7.94333 71.2658 7.82667 70.8832 7.696C70.5005 7.56533 70.1738 7.35067 69.9032 7.052C69.6325 6.75333 69.4972 6.37067 69.4972 5.904C69.4972 5.29733 69.7305 4.798 70.1972 4.406C70.6732 4.014 71.2658 3.818 71.9752 3.818C72.5445 3.818 73.0485 3.94867 73.4872 4.21C73.9352 4.462 74.2712 4.81667 74.4952 5.274L73.4732 5.848C73.2212 5.25067 72.7218 4.952 71.9752 4.952C71.6298 4.952 71.3358 5.036 71.0932 5.204C70.8505 5.36267 70.7292 5.59133 70.7292 5.89ZM84.2038 4H85.4778L83.3078 11H82.0618L80.4238 5.82L78.7858 11H77.5398L75.3698 4H76.6438L78.1838 9.32L79.8358 4H81.0118L82.6638 9.334L84.2038 4ZM92.5058 10.118C91.7872 10.8273 90.9145 11.182 89.8878 11.182C88.8612 11.182 87.9885 10.8273 87.2698 10.118C86.5605 9.40867 86.2058 8.536 86.2058 7.5C86.2058 6.464 86.5605 5.59133 87.2698 4.882C87.9885 4.17267 88.8612 3.818 89.8878 3.818C90.9145 3.818 91.7872 4.17267 92.5058 4.882C93.2245 5.59133 93.5838 6.464 93.5838 7.5C93.5838 8.536 93.2245 9.40867 92.5058 10.118ZM89.8878 9.992C90.5878 9.992 91.1758 9.754 91.6518 9.278C92.1278 8.802 92.3658 8.20933 92.3658 7.5C92.3658 6.79067 92.1278 6.198 91.6518 5.722C91.1758 5.246 90.5878 5.008 89.8878 5.008C89.1972 5.008 88.6138 5.246 88.1378 5.722C87.6618 6.198 87.4238 6.79067 87.4238 7.5C87.4238 8.20933 87.6618 8.802 88.1378 9.278C88.6138 9.754 89.1972 9.992 89.8878 9.992ZM96.3777 5.176C96.779 4.308 97.507 3.874 98.5617 3.874V5.148C97.9644 5.12 97.451 5.27867 97.0217 5.624C96.5924 5.96933 96.3777 6.52467 96.3777 7.29V11H95.1597V4H96.3777V5.176ZM105.307 1.2H106.525V11H105.307V9.796C104.7 10.72 103.818 11.182 102.661 11.182C101.681 11.182 100.845 10.8273 100.155 10.118C99.464 9.39933 99.1186 8.52667 99.1186 7.5C99.1186 6.47333 99.464 5.60533 100.155 4.896C100.845 4.17733 101.681 3.818 102.661 3.818C103.818 3.818 104.7 4.28 105.307 5.204V1.2ZM102.815 10.006C103.524 10.006 104.117 9.768 104.593 9.292C105.069 8.80667 105.307 8.20933 105.307 7.5C105.307 6.79067 105.069 6.198 104.593 5.722C104.117 5.23667 103.524 4.994 102.815 4.994C102.115 4.994 101.527 5.23667 101.051 5.722C100.575 6.198 100.337 6.79067 100.337 7.5C100.337 8.20933 100.575 8.80667 101.051 9.292C101.527 9.768 102.115 10.006 102.815 10.006ZM110.415 8.13C110.415 7.71933 110.504 7.33667 110.681 6.982C110.858 6.62733 111.073 6.324 111.325 6.072C111.577 5.82 111.829 5.582 112.081 5.358C112.333 5.12467 112.548 4.87267 112.725 4.602C112.902 4.322 112.991 4.028 112.991 3.72C112.991 3.25333 112.828 2.89867 112.501 2.656C112.184 2.404 111.768 2.278 111.255 2.278C110.228 2.278 109.57 2.73067 109.281 3.636L108.175 3.02C108.408 2.36667 108.805 1.872 109.365 1.536C109.925 1.19067 110.56 1.018 111.269 1.018C112.1 1.018 112.809 1.25133 113.397 1.718C113.994 2.18467 114.293 2.83333 114.293 3.664C114.293 4.056 114.204 4.42467 114.027 4.77C113.85 5.11533 113.635 5.414 113.383 5.666C113.131 5.918 112.879 6.16533 112.627 6.408C112.375 6.64133 112.16 6.90733 111.983 7.206C111.806 7.49533 111.717 7.80333 111.717 8.13H110.415ZM111.059 11.154C110.807 11.154 110.592 11.0653 110.415 10.888C110.238 10.7107 110.149 10.496 110.149 10.244C110.149 9.992 110.238 9.77733 110.415 9.6C110.592 9.42267 110.807 9.334 111.059 9.334C111.32 9.334 111.535 9.42267 111.703 9.6C111.88 9.77733 111.969 9.992 111.969 10.244C111.969 10.496 111.88 10.7107 111.703 10.888C111.535 11.0653 111.32 11.154 111.059 11.154Z" fill="#433D4A"/>
<path d="M125.158 11L123.184 7.598H121.714V11H119.782V1.2H123.702C124.607 1.2 125.377 1.51733 126.012 2.152C126.647 2.78667 126.964 3.552 126.964 4.448C126.964 5.05467 126.791 5.61933 126.446 6.142C126.101 6.65533 125.643 7.04267 125.074 7.304L127.244 11H125.158ZM121.714 3.006V5.904H123.702C124.066 5.904 124.379 5.764 124.64 5.484C124.901 5.19467 125.032 4.84933 125.032 4.448C125.032 4.04667 124.901 3.706 124.64 3.426C124.379 3.146 124.066 3.006 123.702 3.006H121.714ZM129.608 8.242C129.851 9.11933 130.509 9.558 131.582 9.558C132.273 9.558 132.795 9.32467 133.15 8.858L134.606 9.698C133.915 10.6967 132.898 11.196 131.554 11.196C130.397 11.196 129.468 10.846 128.768 10.146C128.068 9.446 127.718 8.564 127.718 7.5C127.718 6.44533 128.063 5.568 128.754 4.868C129.445 4.15867 130.331 3.804 131.414 3.804C132.441 3.804 133.285 4.15867 133.948 4.868C134.62 5.57733 134.956 6.45467 134.956 7.5C134.956 7.73333 134.933 7.98067 134.886 8.242H129.608ZM129.58 6.842H133.15C133.047 6.366 132.833 6.01133 132.506 5.778C132.189 5.54467 131.825 5.428 131.414 5.428C130.929 5.428 130.527 5.554 130.21 5.806C129.893 6.04867 129.683 6.394 129.58 6.842ZM137.749 5.988C137.749 6.17467 137.871 6.32867 138.113 6.45C138.365 6.562 138.669 6.66467 139.023 6.758C139.378 6.842 139.733 6.954 140.087 7.094C140.442 7.22467 140.741 7.44867 140.983 7.766C141.235 8.08333 141.361 8.48 141.361 8.956C141.361 9.67467 141.091 10.23 140.549 10.622C140.017 11.0047 139.35 11.196 138.547 11.196C137.11 11.196 136.13 10.6407 135.607 9.53L137.175 8.648C137.381 9.25467 137.838 9.558 138.547 9.558C139.191 9.558 139.513 9.35733 139.513 8.956C139.513 8.76933 139.387 8.62 139.135 8.508C138.893 8.38667 138.594 8.27933 138.239 8.186C137.885 8.09267 137.53 7.976 137.175 7.836C136.821 7.696 136.517 7.47667 136.265 7.178C136.023 6.87 135.901 6.48733 135.901 6.03C135.901 5.33933 136.153 4.798 136.657 4.406C137.171 4.00467 137.805 3.804 138.561 3.804C139.131 3.804 139.649 3.93467 140.115 4.196C140.582 4.448 140.951 4.812 141.221 5.288L139.681 6.128C139.457 5.652 139.084 5.414 138.561 5.414C138.328 5.414 138.132 5.46533 137.973 5.568C137.824 5.67067 137.749 5.81067 137.749 5.988ZM144.093 8.242C144.336 9.11933 144.994 9.558 146.067 9.558C146.758 9.558 147.28 9.32467 147.635 8.858L149.091 9.698C148.4 10.6967 147.383 11.196 146.039 11.196C144.882 11.196 143.953 10.846 143.253 10.146C142.553 9.446 142.203 8.564 142.203 7.5C142.203 6.44533 142.548 5.568 143.239 4.868C143.93 4.15867 144.816 3.804 145.899 3.804C146.926 3.804 147.77 4.15867 148.433 4.868C149.105 5.57733 149.441 6.45467 149.441 7.5C149.441 7.73333 149.418 7.98067 149.371 8.242H144.093ZM144.065 6.842H147.635C147.532 6.366 147.318 6.01133 146.991 5.778C146.674 5.54467 146.31 5.428 145.899 5.428C145.414 5.428 145.012 5.554 144.695 5.806C144.378 6.04867 144.168 6.394 144.065 6.842ZM154.641 5.736H153.059V8.648C153.059 8.89067 153.119 9.068 153.241 9.18C153.362 9.292 153.539 9.35733 153.773 9.376C154.006 9.38533 154.295 9.38067 154.641 9.362V11C153.399 11.14 152.522 11.0233 152.009 10.65C151.505 10.2767 151.253 9.60933 151.253 8.648V5.736H150.035V4H151.253V2.586L153.059 2.04V4H154.641V5.736ZM160.7 3.16C160.401 3.16 160.14 3.05267 159.916 2.838C159.701 2.614 159.594 2.35267 159.594 2.054C159.594 1.75533 159.701 1.494 159.916 1.27C160.14 1.046 160.401 0.933999 160.7 0.933999C161.008 0.933999 161.269 1.046 161.484 1.27C161.708 1.494 161.82 1.75533 161.82 2.054C161.82 2.35267 161.708 2.614 161.484 2.838C161.269 3.05267 161.008 3.16 160.7 3.16ZM159.804 11V4H161.61V11H159.804ZM167.406 5.736H165.824V8.648C165.824 8.89067 165.885 9.068 166.006 9.18C166.128 9.292 166.305 9.35733 166.538 9.376C166.772 9.38533 167.061 9.38067 167.406 9.362V11C166.165 11.14 165.288 11.0233 164.774 10.65C164.27 10.2767 164.018 9.60933 164.018 8.648V5.736H162.8V4H164.018V2.586L165.824 2.04V4H167.406V5.736Z" fill="#3C1D59"/>
</svg>
