<svg width="270" height="35" viewBox="0 0 270 35" fill="none" xmlns="http://www.w3.org/2000/svg">
<path d="M14.6094 20.3027C14.6094 19.8457 14.5391 19.4355 14.3984 19.0723C14.2695 18.6973 14.0234 18.3574 13.6602 18.0527C13.2969 17.7363 12.7871 17.4258 12.1309 17.1211C11.4746 16.8164 10.625 16.5 9.58203 16.1719C8.42188 15.7969 7.32031 15.375 6.27734 14.9062C5.24609 14.4375 4.33203 13.8926 3.53516 13.2715C2.75 12.6387 2.12891 11.9062 1.67188 11.0742C1.22656 10.2422 1.00391 9.27539 1.00391 8.17383C1.00391 7.10742 1.23828 6.14062 1.70703 5.27344C2.17578 4.39453 2.83203 3.64453 3.67578 3.02344C4.51953 2.39062 5.51562 1.9043 6.66406 1.56445C7.82422 1.22461 9.0957 1.05469 10.4785 1.05469C12.3652 1.05469 14.0117 1.39453 15.418 2.07422C16.8242 2.75391 17.9141 3.68555 18.6875 4.86914C19.4727 6.05273 19.8652 7.40625 19.8652 8.92969H14.627C14.627 8.17969 14.4688 7.52344 14.1523 6.96094C13.8477 6.38672 13.3789 5.93555 12.7461 5.60742C12.125 5.2793 11.3398 5.11523 10.3906 5.11523C9.47656 5.11523 8.71484 5.25586 8.10547 5.53711C7.49609 5.80664 7.03906 6.17578 6.73438 6.64453C6.42969 7.10156 6.27734 7.61719 6.27734 8.19141C6.27734 8.625 6.38281 9.01758 6.59375 9.36914C6.81641 9.7207 7.14453 10.0488 7.57812 10.3535C8.01172 10.6582 8.54492 10.9453 9.17773 11.2148C9.81055 11.4844 10.543 11.748 11.375 12.0059C12.7695 12.4277 13.9941 12.9023 15.0488 13.4297C16.1152 13.957 17.0059 14.5488 17.7207 15.2051C18.4355 15.8613 18.9746 16.6055 19.3379 17.4375C19.7012 18.2695 19.8828 19.2129 19.8828 20.2676C19.8828 21.3809 19.666 22.377 19.2324 23.2559C18.7988 24.1348 18.1719 24.8789 17.3516 25.4883C16.5312 26.0977 15.5527 26.5605 14.416 26.877C13.2793 27.1934 12.0078 27.3516 10.6016 27.3516C9.33594 27.3516 8.08789 27.1875 6.85742 26.8594C5.62695 26.5195 4.50781 26.0098 3.5 25.3301C2.50391 24.6504 1.70703 23.7832 1.10938 22.7285C0.511719 21.6738 0.212891 20.4258 0.212891 18.9844H5.50391C5.50391 19.7812 5.62695 20.4551 5.87305 21.0059C6.11914 21.5566 6.46484 22.002 6.91016 22.3418C7.36719 22.6816 7.90625 22.9277 8.52734 23.0801C9.16016 23.2324 9.85156 23.3086 10.6016 23.3086C11.5156 23.3086 12.2656 23.1797 12.8516 22.9219C13.4492 22.6641 13.8887 22.3066 14.1699 21.8496C14.4629 21.3926 14.6094 20.877 14.6094 20.3027ZM28.8561 7.98047V27H23.776V7.98047H28.8561ZM23.4596 3.02344C23.4596 2.28516 23.7174 1.67578 24.233 1.19531C24.7487 0.714844 25.4401 0.474609 26.3073 0.474609C27.1627 0.474609 27.8483 0.714844 28.3639 1.19531C28.8913 1.67578 29.1549 2.28516 29.1549 3.02344C29.1549 3.76172 28.8913 4.37109 28.3639 4.85156C27.8483 5.33203 27.1627 5.57227 26.3073 5.57227C25.4401 5.57227 24.7487 5.33203 24.233 4.85156C23.7174 4.37109 23.4596 3.76172 23.4596 3.02344ZM45.4407 7.98047H50.0286V26.3672C50.0286 28.1016 49.6419 29.5723 48.8684 30.7793C48.1067 31.998 47.0403 32.918 45.6692 33.5391C44.2981 34.1719 42.7044 34.4883 40.888 34.4883C40.0911 34.4883 39.2473 34.3828 38.3567 34.1719C37.4778 33.9609 36.6341 33.6328 35.8255 33.1875C35.0286 32.7422 34.3606 32.1797 33.8216 31.5L36.054 28.5117C36.6399 29.1914 37.3196 29.7188 38.093 30.0938C38.8665 30.4805 39.722 30.6738 40.6595 30.6738C41.5735 30.6738 42.347 30.5039 42.9798 30.1641C43.6126 29.8359 44.0989 29.3496 44.4388 28.7051C44.7786 28.0723 44.9485 27.3047 44.9485 26.4023V12.375L45.4407 7.98047ZM32.6438 17.7188V17.3496C32.6438 15.8965 32.8196 14.5781 33.1712 13.3945C33.5345 12.1992 34.0442 11.1738 34.7005 10.3184C35.3684 9.46289 36.177 8.80078 37.1263 8.33203C38.0755 7.86328 39.1477 7.62891 40.343 7.62891C41.6087 7.62891 42.6692 7.86328 43.5247 8.33203C44.3802 8.80078 45.0833 9.46875 45.6341 10.3359C46.1848 11.1914 46.6126 12.2051 46.9173 13.377C47.2337 14.5371 47.4798 15.8086 47.6555 17.1914V18C47.4798 19.3242 47.2161 20.5547 46.8645 21.6914C46.513 22.8281 46.0501 23.8242 45.4759 24.6797C44.9016 25.5234 44.1868 26.1797 43.3313 26.6484C42.4876 27.1172 41.4798 27.3516 40.3079 27.3516C39.136 27.3516 38.0755 27.1113 37.1263 26.6309C36.1888 26.1504 35.386 25.4766 34.718 24.6094C34.0501 23.7422 33.5345 22.7227 33.1712 21.5508C32.8196 20.3789 32.6438 19.1016 32.6438 17.7188ZM37.7063 17.3496V17.7188C37.7063 18.5039 37.7825 19.2363 37.9348 19.916C38.0872 20.5957 38.3216 21.1992 38.638 21.7266C38.9661 22.2422 39.3704 22.6465 39.8509 22.9395C40.343 23.2207 40.9231 23.3613 41.5911 23.3613C42.5169 23.3613 43.2727 23.168 43.8587 22.7812C44.4446 22.3828 44.8841 21.8379 45.177 21.1465C45.47 20.4551 45.6399 19.6582 45.6868 18.7559V16.4531C45.6634 15.7148 45.5638 15.0527 45.388 14.4668C45.2122 13.8691 44.9661 13.3594 44.6497 12.9375C44.3333 12.5156 43.9231 12.1875 43.4192 11.9531C42.9153 11.7188 42.3177 11.6016 41.6263 11.6016C40.9583 11.6016 40.3782 11.7539 39.886 12.0586C39.4055 12.3516 39.0013 12.7559 38.6731 13.2715C38.3567 13.7871 38.1165 14.3965 37.9524 15.0996C37.7884 15.791 37.7063 16.541 37.7063 17.3496ZM59.2831 12.041V27H54.2206V7.98047H58.9667L59.2831 12.041ZM58.5448 16.8223H57.1738C57.1738 15.416 57.3554 14.1504 57.7187 13.0254C58.082 11.8887 58.5917 10.9219 59.248 10.125C59.9042 9.31641 60.6835 8.70117 61.5859 8.2793C62.4999 7.8457 63.5195 7.62891 64.6445 7.62891C65.5351 7.62891 66.3495 7.75781 67.0878 8.01562C67.8261 8.27344 68.4589 8.68359 68.9863 9.24609C69.5253 9.80859 69.9355 10.5527 70.2167 11.4785C70.5097 12.4043 70.6562 13.5352 70.6562 14.8711V27H65.5585V14.8535C65.5585 14.0098 65.4413 13.3535 65.207 12.8848C64.9726 12.416 64.6269 12.0879 64.1698 11.9004C63.7245 11.7012 63.1738 11.6016 62.5175 11.6016C61.8378 11.6016 61.246 11.7363 60.7421 12.0059C60.2499 12.2754 59.8398 12.6504 59.5116 13.1309C59.1952 13.5996 58.955 14.1504 58.7909 14.7832C58.6269 15.416 58.5448 16.0957 58.5448 16.8223ZM98.6398 1.40625H103.896V18.3164C103.896 20.2852 103.474 21.9434 102.63 23.291C101.798 24.6387 100.644 25.6523 99.1672 26.332C97.7023 27.0117 96.0148 27.3516 94.1047 27.3516C92.1945 27.3516 90.4953 27.0117 89.007 26.332C87.5305 25.6523 86.3703 24.6387 85.5266 23.291C84.6945 21.9434 84.2785 20.2852 84.2785 18.3164V1.40625H89.552V18.3164C89.552 19.4648 89.7336 20.4023 90.0969 21.1289C90.4602 21.8555 90.9816 22.3887 91.6613 22.7285C92.3527 23.0684 93.1672 23.2383 94.1047 23.2383C95.0656 23.2383 95.8801 23.0684 96.548 22.7285C97.2277 22.3887 97.7434 21.8555 98.0949 21.1289C98.4582 20.4023 98.6398 19.4648 98.6398 18.3164V1.40625ZM113.344 11.6367V34.3125H108.281V7.98047H112.974L113.344 11.6367ZM125.385 17.2793V17.6484C125.385 19.0312 125.221 20.3145 124.892 21.498C124.576 22.6816 124.107 23.7129 123.486 24.5918C122.865 25.459 122.092 26.1387 121.166 26.6309C120.252 27.1113 119.197 27.3516 118.002 27.3516C116.842 27.3516 115.834 27.1172 114.978 26.6484C114.123 26.1797 113.402 25.5234 112.816 24.6797C112.242 23.8242 111.779 22.834 111.428 21.709C111.076 20.584 110.806 19.377 110.619 18.0879V17.1211C110.806 15.7383 111.076 14.4727 111.428 13.3242C111.779 12.1641 112.242 11.1621 112.816 10.3184C113.402 9.46289 114.117 8.80078 114.961 8.33203C115.816 7.86328 116.818 7.62891 117.967 7.62891C119.174 7.62891 120.234 7.85742 121.148 8.31445C122.074 8.77148 122.848 9.42773 123.469 10.2832C124.101 11.1387 124.576 12.1582 124.892 13.3418C125.221 14.5254 125.385 15.8379 125.385 17.2793ZM120.305 17.6484V17.2793C120.305 16.4707 120.234 15.7266 120.094 15.0469C119.965 14.3555 119.754 13.752 119.461 13.2363C119.18 12.7207 118.805 12.3223 118.336 12.041C117.879 11.748 117.322 11.6016 116.666 11.6016C115.974 11.6016 115.383 11.7129 114.89 11.9355C114.41 12.1582 114.017 12.4805 113.713 12.9023C113.408 13.3242 113.18 13.8281 113.027 14.4141C112.875 15 112.781 15.6621 112.746 16.4004V18.8438C112.805 19.7109 112.969 20.4902 113.238 21.1816C113.508 21.8613 113.924 22.4004 114.486 22.7988C115.049 23.1973 115.787 23.3965 116.701 23.3965C117.369 23.3965 117.931 23.25 118.389 22.957C118.846 22.6523 119.215 22.2363 119.496 21.709C119.789 21.1816 119.994 20.5723 120.111 19.8809C120.24 19.1895 120.305 18.4453 120.305 17.6484ZM147.532 7.98047V11.5664H136.458V7.98047H147.532ZM139.2 3.28711H144.263V21.2695C144.263 21.8203 144.333 22.2422 144.474 22.5352C144.626 22.8281 144.849 23.0332 145.142 23.1504C145.435 23.2559 145.804 23.3086 146.249 23.3086C146.566 23.3086 146.847 23.2969 147.093 23.2734C147.351 23.2383 147.568 23.2031 147.743 23.168L147.761 26.8945C147.327 27.0352 146.859 27.1465 146.355 27.2285C145.851 27.3105 145.294 27.3516 144.685 27.3516C143.571 27.3516 142.599 27.1699 141.767 26.8066C140.946 26.4316 140.314 25.834 139.868 25.0137C139.423 24.1934 139.2 23.1152 139.2 21.7793V3.28711ZM149.51 17.6836V17.3145C149.51 15.9199 149.709 14.6367 150.107 13.4648C150.506 12.2812 151.086 11.2559 151.847 10.3887C152.609 9.52148 153.547 8.84766 154.66 8.36719C155.773 7.875 157.051 7.62891 158.492 7.62891C159.933 7.62891 161.217 7.875 162.342 8.36719C163.467 8.84766 164.41 9.52148 165.172 10.3887C165.945 11.2559 166.531 12.2812 166.929 13.4648C167.328 14.6367 167.527 15.9199 167.527 17.3145V17.6836C167.527 19.0664 167.328 20.3496 166.929 21.5332C166.531 22.7051 165.945 23.7305 165.172 24.6094C164.41 25.4766 163.472 26.1504 162.359 26.6309C161.246 27.1113 159.969 27.3516 158.527 27.3516C157.086 27.3516 155.803 27.1113 154.678 26.6309C153.564 26.1504 152.621 25.4766 151.847 24.6094C151.086 23.7305 150.506 22.7051 150.107 21.5332C149.709 20.3496 149.51 19.0664 149.51 17.6836ZM154.572 17.3145V17.6836C154.572 18.4805 154.642 19.2246 154.783 19.916C154.924 20.6074 155.146 21.2168 155.451 21.7441C155.767 22.2598 156.178 22.6641 156.681 22.957C157.185 23.25 157.801 23.3965 158.527 23.3965C159.23 23.3965 159.834 23.25 160.338 22.957C160.842 22.6641 161.246 22.2598 161.551 21.7441C161.855 21.2168 162.078 20.6074 162.219 19.916C162.371 19.2246 162.447 18.4805 162.447 17.6836V17.3145C162.447 16.541 162.371 15.8145 162.219 15.1348C162.078 14.4434 161.849 13.834 161.533 13.3066C161.228 12.7676 160.824 12.3457 160.32 12.041C159.816 11.7363 159.207 11.584 158.492 11.584C157.777 11.584 157.168 11.7363 156.664 12.041C156.172 12.3457 155.767 12.7676 155.451 13.3066C155.146 13.834 154.924 14.4434 154.783 15.1348C154.642 15.8145 154.572 16.541 154.572 17.3145ZM183.048 1.40625H187.513L194.087 20.1973L200.661 1.40625H205.126L195.88 27H192.294L183.048 1.40625ZM180.64 1.40625H185.087L185.896 19.7227V27H180.64V1.40625ZM203.087 1.40625H207.552V27H202.278V19.7227L203.087 1.40625ZM211.41 17.6836V17.3145C211.41 15.9199 211.609 14.6367 212.008 13.4648C212.406 12.2812 212.986 11.2559 213.748 10.3887C214.509 9.52148 215.447 8.84766 216.56 8.36719C217.674 7.875 218.951 7.62891 220.392 7.62891C221.834 7.62891 223.117 7.875 224.242 8.36719C225.367 8.84766 226.31 9.52148 227.072 10.3887C227.845 11.2559 228.431 12.2812 228.83 13.4648C229.228 14.6367 229.427 15.9199 229.427 17.3145V17.6836C229.427 19.0664 229.228 20.3496 228.83 21.5332C228.431 22.7051 227.845 23.7305 227.072 24.6094C226.31 25.4766 225.373 26.1504 224.259 26.6309C223.146 27.1113 221.869 27.3516 220.427 27.3516C218.986 27.3516 217.703 27.1113 216.578 26.6309C215.465 26.1504 214.521 25.4766 213.748 24.6094C212.986 23.7305 212.406 22.7051 212.008 21.5332C211.609 20.3496 211.41 19.0664 211.41 17.6836ZM216.472 17.3145V17.6836C216.472 18.4805 216.543 19.2246 216.683 19.916C216.824 20.6074 217.047 21.2168 217.351 21.7441C217.668 22.2598 218.078 22.6641 218.582 22.957C219.086 23.25 219.701 23.3965 220.427 23.3965C221.131 23.3965 221.734 23.25 222.238 22.957C222.742 22.6641 223.146 22.2598 223.451 21.7441C223.756 21.2168 223.978 20.6074 224.119 19.916C224.271 19.2246 224.347 18.4805 224.347 17.6836V17.3145C224.347 16.541 224.271 15.8145 224.119 15.1348C223.978 14.4434 223.75 13.834 223.433 13.3066C223.129 12.7676 222.724 12.3457 222.22 12.041C221.716 11.7363 221.107 11.584 220.392 11.584C219.677 11.584 219.068 11.7363 218.564 12.041C218.072 12.3457 217.668 12.7676 217.351 13.3066C217.047 13.834 216.824 14.4434 216.683 15.1348C216.543 15.8145 216.472 16.541 216.472 17.3145ZM238.242 0V27H233.162V0H238.242ZM248.13 0V27H243.05V0H248.13ZM251.865 17.6836V17.3145C251.865 15.9199 252.064 14.6367 252.462 13.4648C252.861 12.2812 253.441 11.2559 254.203 10.3887C254.964 9.52148 255.902 8.84766 257.015 8.36719C258.129 7.875 259.406 7.62891 260.847 7.62891C262.289 7.62891 263.572 7.875 264.697 8.36719C265.822 8.84766 266.765 9.52148 267.527 10.3887C268.3 11.2559 268.886 12.2812 269.285 13.4648C269.683 14.6367 269.882 15.9199 269.882 17.3145V17.6836C269.882 19.0664 269.683 20.3496 269.285 21.5332C268.886 22.7051 268.3 23.7305 267.527 24.6094C266.765 25.4766 265.828 26.1504 264.714 26.6309C263.601 27.1113 262.324 27.3516 260.882 27.3516C259.441 27.3516 258.158 27.1113 257.033 26.6309C255.92 26.1504 254.976 25.4766 254.203 24.6094C253.441 23.7305 252.861 22.7051 252.462 21.5332C252.064 20.3496 251.865 19.0664 251.865 17.6836ZM256.927 17.3145V17.6836C256.927 18.4805 256.998 19.2246 257.138 19.916C257.279 20.6074 257.502 21.2168 257.806 21.7441C258.123 22.2598 258.533 22.6641 259.037 22.957C259.541 23.25 260.156 23.3965 260.882 23.3965C261.586 23.3965 262.189 23.25 262.693 22.957C263.197 22.6641 263.601 22.2598 263.906 21.7441C264.211 21.2168 264.433 20.6074 264.574 19.916C264.726 19.2246 264.802 18.4805 264.802 17.6836V17.3145C264.802 16.541 264.726 15.8145 264.574 15.1348C264.433 14.4434 264.205 13.834 263.888 13.3066C263.584 12.7676 263.179 12.3457 262.675 12.041C262.171 11.7363 261.562 11.584 260.847 11.584C260.132 11.584 259.523 11.7363 259.019 12.041C258.527 12.3457 258.123 12.7676 257.806 13.3066C257.502 13.834 257.279 14.4434 257.138 15.1348C256.998 15.8145 256.927 16.541 256.927 17.3145Z" fill="#3C1D59"/>
</svg>
